<svg xmlns="http://www.w3.org/2000/svg" viewBox="0 0 192 192" width="192" height="192">
  <rect width="192" height="192" rx="42" fill="#000000"/>
  <circle cx="96" cy="96" r="76" stroke="#f59e0b" stroke-width="3" stroke-opacity="0.25" fill="none"/>
  <circle cx="96" cy="96" r="64" stroke="#f59e0b" stroke-width="4" stroke-opacity="0.8" fill="none"/>
  <!-- Central Zen Flame / ATP Pulse -->
  <path d="M96 42c3.5 14 14 26 21 38 6 10 9 20 9 32 0 17-13.5 30.5-30 30.5S66 129 66 112c0-12 3-22 9-32 7-12 17.5-24 21-38z" fill="url(#goldGrad)"/>
  <path d="M96 82c2 8 8 15 12 22 3 5 5 10 5 16 0 9-7.5 17-17 17s-17-8-17-17c0-6 2-11 5-16 4-7 10-14 12-22z" fill="#000000"/>
  <defs>
    <linearGradient id="goldGrad" x1="66" y1="42" x2="126" y2="142.5" gradientUnits="userSpaceOnUse">
      <stop stop-color="#fbbf24"/>
      <stop offset="0.5" stop-color="#f59e0b"/>
      <stop offset="1" stop-color="#d97706"/>
    </linearGradient>
  </defs>
</svg>
